<svg width="69" height="70" viewBox="0 0 69 70" fill="none" xmlns="http://www.w3.org/2000/svg">
<rect width="1280" height="348" transform="translate(-604 -50)" fill="#2B2B2B"/>
<path d="M68.7056 34.4603C68.4147 15.1299 52.7881 -0.292106 33.8159 0.00419918C14.8368 0.300505 -0.304939 16.2163 -0.0140152 35.5397C0.276909 54.8701 15.9035 70.2921 34.8757 69.9958C53.8548 69.6995 69.0035 53.7907 68.7056 34.4603Z" fill="url(#paint0_linear_505_574)"/>
<path d="M33.855 63C18.9431 63 6.85469 50.6878 6.85469 35.5C6.85469 20.3122 18.9431 8 33.855 8C48.7669 8 60.8553 20.3122 60.8553 35.5C60.8553 50.6878 48.7669 63 33.855 63Z" fill="#B897FD"/>
<path d="M32.535 22.8915L32.5651 21L36.1524 21.0503L36.1224 22.9417C39.2238 23.5676 40.782 25.7698 40.7219 29.2238L40.7068 30.0233L36.5583 29.9639L36.5783 28.9085C36.6084 27.0901 35.8218 26.3866 34.4289 26.3683C33.036 26.35 32.2243 27.0262 32.1943 28.8445C32.1041 34.0803 40.6718 34.455 40.5515 41.7239C40.4914 45.1778 38.8229 47.3708 35.7015 47.9099L35.6715 49.7648L32.0841 49.7146L32.1141 47.8597C28.9726 47.2338 27.4194 44.9951 27.4746 41.5411L27.5046 39.7958L31.6532 39.8552L31.6181 41.8563C31.588 43.6747 32.4548 44.3417 33.8477 44.36C35.2456 44.3783 36.1324 43.7387 36.1625 41.9203C36.2526 36.6845 27.685 36.3099 27.8052 29.041C27.8654 25.6281 29.4586 23.4671 32.535 22.8915Z" fill="#3B3B3B"/>
<defs>
<linearGradient id="paint0_linear_505_574" x1="13.8461" y1="-5.26542e-07" x2="71.7575" y2="68.2318" gradientUnits="userSpaceOnUse">
<stop stop-color="#BA99FD"/>
<stop offset="1" stop-color="#CEC0FD"/>
</linearGradient>
</defs>
</svg>
